<svg xmlns="http://www.w3.org/2000/svg" viewBox="0 0 200 280">
  <defs>
    <radialGradient id="shbg" cx="50%" cy="40%" r="70%">
      <stop offset="0%" stop-color="#1a0a2e"/>
      <stop offset="100%" stop-color="#000005"/>
    </radialGradient>
    <radialGradient id="shpurple" cx="50%" cy="50%" r="55%">
      <stop offset="0%" stop-color="rgba(80,0,120,0.3)"/>
      <stop offset="100%" stop-color="transparent"/>
    </radialGradient>
  </defs>
  <rect width="200" height="280" fill="url(#shbg)"/>
  <rect width="200" height="280" fill="url(#shpurple)"/>
  <!-- Moon -->
  <circle cx="140" cy="55" r="28" fill="#1a0a2e"/>
  <circle cx="128" cy="50" r="26" fill="#c8a2c8"/>
  <!-- Stars scattered -->
  <circle cx="20" cy="30" r="1.5" fill="white" opacity="0.8"/>
  <circle cx="50" cy="20" r="1" fill="white" opacity="0.7"/>
  <circle cx="80" cy="35" r="1.5" fill="white" opacity="0.9"/>
  <circle cx="170" cy="25" r="1" fill="white" opacity="0.7"/>
  <circle cx="190" cy="50" r="1.5" fill="white" opacity="0.8"/>
  <circle cx="15" cy="80" r="1" fill="white" opacity="0.6"/>
  <circle cx="35" cy="100" r="1.5" fill="white" opacity="0.7"/>
  <circle cx="175" cy="90" r="1" fill="white" opacity="0.6"/>
  <circle cx="25" cy="180" r="1.5" fill="white" opacity="0.5"/>
  <circle cx="180" cy="170" r="1" fill="white" opacity="0.6"/>
  <!-- 4-pointed star sparkles -->
  <path d="M 60 55 L 62 50 L 64 55 L 69 57 L 64 59 L 62 64 L 60 59 L 55 57 Z" fill="white" opacity="0.5"/>
  <path d="M 165 130 L 167 125 L 169 130 L 174 132 L 169 134 L 167 139 L 165 134 L 160 132 Z" fill="#c8a2c8" opacity="0.5"/>
  <!-- Shadow figure silhouette (abstract dark type symbol) -->
  <!-- Dark cloud/mist at bottom -->
  <path d="M 0 220 Q 30 205 60 220 Q 90 235 120 215 Q 150 200 180 220 Q 190 225 200 215 L 200 280 L 0 280 Z" fill="rgba(20,0,30,0.8)"/>
  <path d="M 0 240 Q 50 228 100 240 Q 150 252 200 238 L 200 280 L 0 280 Z" fill="rgba(10,0,20,0.9)"/>
  <!-- Ghostly eyes -->
  <ellipse cx="85" cy="155" rx="10" ry="13" fill="#7b1fa2" opacity="0.8"/>
  <ellipse cx="115" cy="155" rx="10" ry="13" fill="#7b1fa2" opacity="0.8"/>
  <ellipse cx="85" cy="155" rx="5" ry="7" fill="#e040fb"/>
  <ellipse cx="115" cy="155" rx="5" ry="7" fill="#e040fb"/>
  <circle cx="83" cy="152" r="2" fill="rgba(255,255,255,0.5)"/>
  <circle cx="113" cy="152" r="2" fill="rgba(255,255,255,0.5)"/>
  <!-- Wispy shadow tendrils -->
  <path d="M 70 170 Q 60 190 50 210" stroke="#4a0072" stroke-width="3" fill="none" opacity="0.6" stroke-linecap="round"/>
  <path d="M 100 175 Q 100 195 98 215" stroke="#4a0072" stroke-width="3" fill="none" opacity="0.6" stroke-linecap="round"/>
  <path d="M 130 170 Q 140 190 150 210" stroke="#4a0072" stroke-width="3" fill="none" opacity="0.6" stroke-linecap="round"/>
  <text x="100" y="268" font-family="Arial, sans-serif" font-size="13" font-weight="bold" fill="rgba(180,100,255,0.8)" text-anchor="middle" letter-spacing="4">SHADOW</text>
</svg>
